<?xml version="1.0" encoding="utf-8"?>
<!-- Generator: Adobe Illustrator 25.4.1, SVG Export Plug-In . SVG Version: 6.00 Build 0)  -->
<svg version="1.1" id="圖層_1" xmlns="http://www.w3.org/2000/svg" xmlns:xlink="http://www.w3.org/1999/xlink" x="0px" y="0px"
	 viewBox="0 0 100 100" style="enable-background:new 0 0 100 100;" xml:space="preserve">
<style type="text/css">
	.st0{fill:#FFFFFF;}
	.st1{fill:#E86B32;enable-background:new    ;}
	.st2{fill:#E74125;enable-background:new    ;}
	.st3{fill:#ECA042;enable-background:new    ;}
	.st4{fill:#316EBE;enable-background:new    ;}
	.st5{fill:#3E4CB4;enable-background:new    ;}
	.st6{fill:#6A2EAB;enable-background:new    ;}
	.st7{fill:#C03D8B;enable-background:new    ;}
	.st8{fill:#F1C948;enable-background:new    ;}
	.st9{fill:#95CE3F;enable-background:new    ;}
	.st10{fill:#FCEE50;enable-background:new    ;}
	.st11{fill:#5CBFAE;enable-background:new    ;}
	.st12{fill:#56B133;enable-background:new    ;}
</style>
<g>
	<polygon class="st0" points="50,53.5 50,53.5 50,53.5 	"/>
	<polygon class="st0" points="50,53.5 50,53.5 50,53.5 	"/>
	<path class="st1" d="M50,53.5l42.3-24.4c-3.9-7.8-9.9-14.4-17.2-19.1L50,53.5L50,53.5z"/>
	<polygon class="st0" points="50,53.5 50,53.5 50,53.5 	"/>
	<polygon class="st0" points="50,53.5 50,53.5 50,53.5 	"/>
	<path class="st2" d="M97.1,53.5c0.1-1.2,0.1-2.3,0.1-3.5c0-7.5-1.8-14.6-4.9-20.9L50,53.5H97.1z"/>
	<polygon class="st0" points="50,53.5 50,53.5 50,53.5 	"/>
	<path class="st3" d="M75.1,10C67.8,5.4,59.2,2.8,50,2.8v50.8L75.1,10z"/>
	<polygon class="st0" points="50,53.5 50,53.5 50,53.5 	"/>
	<path class="st4" d="M50,53.5L50,53.5L27.9,91.7c6.6,3.5,14.1,5.5,22.1,5.5V53.5L50,53.5z"/>
	<path class="st5" d="M50,97.2c8,0,15.5-2,22.1-5.5L50,53.5V97.2z"/>
	<path class="st6" d="M50,53.5l22.1,38.2c6.9-3.7,12.9-9,17.2-15.5L50,53.5L50,53.5z"/>
	<path class="st7" d="M50,53.5l39.3,22.7c4.4-6.6,7.2-14.3,7.8-22.7H50z"/>
	<path class="st8" d="M50,53.5L50,53.5V2.8c-9.2,0-17.8,2.7-25.1,7.2L50,53.5L50,53.5z"/>
	<path class="st9" d="M50,53.5L7.7,29.1C4.5,35.4,2.8,42.5,2.8,50c0,1.2,0.1,2.4,0.1,3.5H50L50,53.5z"/>
	<path class="st10" d="M24.9,10c-7.4,4.6-13.3,11.2-17.2,19.1L50,53.5L24.9,10z"/>
	<path class="st11" d="M10.7,76.2c4.3,6.5,10.3,11.9,17.2,15.5L50,53.5L10.7,76.2z"/>
	<path class="st12" d="M50,53.5H2.9c0.6,8.4,3.4,16.1,7.8,22.7L50,53.5L50,53.5z"/>
</g>
</svg>
