<?xml version="1.0" encoding="utf-8"?>
<!-- Generator: Adobe Illustrator 25.4.1, SVG Export Plug-In . SVG Version: 6.00 Build 0)  -->
<svg version="1.1" id="圖層_1" xmlns="http://www.w3.org/2000/svg" xmlns:xlink="http://www.w3.org/1999/xlink" x="0px" y="0px"
	 viewBox="0 0 100 100" style="enable-background:new 0 0 100 100;" xml:space="preserve">
<style type="text/css">
	.st0{fill:#F1CA21;}
	.st1{fill:#FFFFFF;}
	.st2{fill:#040000;}
</style>
<g id="组_24" transform="translate(-50.165 -50)">
	<g id="圖層_9" transform="translate(50.165 50)">
		<g id="组_22">
			<g id="组_21">
				<path id="路径_7" class="st0" d="M50,3.8c-1.1,0-1.9,0.9-1.9,1.9c0,0,0,0,0,0v10c0,1.1,0.8,2,1.9,2c1.1,0,2-0.8,2-1.9
					c0,0,0-0.1,0-0.1v-10C51.9,4.7,51.1,3.8,50,3.8L50,3.8z"/>
				<path id="路径_8" class="st0" d="M29.6,10.7c-0.5-0.9-1.7-1.2-2.7-0.7c-0.9,0.5-1.2,1.7-0.7,2.7l5,8.6
					c0.5,0.9,1.7,1.3,2.6,0.8c0.9-0.5,1.3-1.7,0.8-2.6c0,0,0,0,0,0L29.6,10.7z"/>
				<path id="路径_9" class="st0" d="M21.3,31.1l-8.6-5c-0.9-0.5-2.1-0.2-2.7,0.7c-0.5,0.9-0.2,2.1,0.7,2.7l8.6,5
					c0.9,0.5,2.1,0.2,2.7-0.7C22.6,32.9,22.3,31.7,21.3,31.1z"/>
				<path id="路径_10" class="st0" d="M89.2,70.3l-8.6-5c-0.9-0.5-2.1-0.2-2.7,0.7c-0.5,0.9-0.2,2.1,0.7,2.7l0,0l8.6,5
					c0.9,0.5,2.1,0.2,2.7-0.7C90.5,72,90.1,70.9,89.2,70.3z"/>
				<path id="路径_11" class="st0" d="M17.7,49.9c0-1.1-0.9-1.9-1.9-1.9c0,0,0,0,0,0h-10c-1.1,0-2,0.8-2,1.9c0,1.1,0.8,2,1.9,2
					c0,0,0.1,0,0.1,0h10C16.9,51.9,17.7,51,17.7,49.9C17.7,49.9,17.7,49.9,17.7,49.9z"/>
				<path id="路径_12" class="st0" d="M94.2,48h-10c-1.1,0-2,0.8-2,1.9c0,1.1,0.8,2,1.9,2c0,0,0.1,0,0.1,0h10c1.1,0,2-0.8,2-1.9
					C96.2,48.9,95.3,48,94.2,48C94.2,48,94.2,48,94.2,48z"/>
				<path id="路径_13" class="st0" d="M19.4,65.3l-8.6,5C9.9,70.9,9.5,72,10.1,73s1.7,1.2,2.7,0.7l0,0l8.6-5
					c0.9-0.5,1.2-1.7,0.7-2.7C21.5,65.1,20.3,64.8,19.4,65.3z"/>
				<path id="路径_14" class="st0" d="M79.6,34.8c0.3,0,0.7-0.1,1-0.3l8.6-5c0.9-0.5,1.2-1.7,0.7-2.7c-0.5-0.9-1.7-1.2-2.7-0.7
					l-8.6,5c-0.9,0.5-1.2,1.7-0.7,2.6C78.3,34.4,78.9,34.8,79.6,34.8L79.6,34.8z"/>
				<path id="路径_15" class="st0" d="M73.1,10c-0.9-0.5-2.1-0.2-2.6,0.7c0,0,0,0,0,0l-5,8.6c-0.5,0.9-0.2,2.1,0.8,2.6
					c0.9,0.5,2.1,0.2,2.6-0.7l5-8.6C74.3,11.7,74,10.5,73.1,10C73.1,10,73.1,10,73.1,10z"/>
			</g>
		</g>
	</g>
	<g id="圖層_8" transform="translate(69.126 68.914)">
		<path id="路径_16" class="st0" d="M27.9,4C13.1,5.7,2.4,19.1,4.1,34c1,8.4,5.8,15.8,13,20.2c1.3,0.8,2.1,2.2,2.2,3.8v0
			c0,0.1,0.1,0.2,0.2,0.2c0,0,0,0,0,0h23.2c0.1,0,0.2-0.1,0.2-0.2l0,0v0c0-1.5,0.8-3,2.1-3.8c12.8-7.7,17-24.4,9.3-37.2
			C48.8,7.8,38.5,2.8,27.9,4z"/>
	</g>
	<g id="圖層_7" transform="translate(101.697 74.586)">
		<g id="组_23" transform="translate(0 0)">
			<path id="路径_17" class="st1" d="M16.7,14.9c-0.3,0-0.6-0.2-0.8-0.5c-2.6-4.2-6.6-7.3-11.3-8.8C4.1,5.6,3.8,5,3.9,4.5
				C4.1,4,4.6,3.7,5.2,3.9c5.2,1.6,9.6,5,12.4,9.6c0.3,0.5,0.1,1.1-0.3,1.3C17.1,14.9,16.9,14.9,16.7,14.9L16.7,14.9z"/>
		</g>
	</g>
	<g id="圖層_6" transform="translate(88.802 138.222)">
		<path id="路径_18" class="st2" d="M15,8H7.5c-2,0-3.6-1.6-3.6-3.6V4.1c0-0.1,0.1-0.3,0.3-0.3h14.4c0.1,0,0.3,0.1,0.3,0.3l0,0
			C18.8,6.2,17.1,8,15,8z"/>
	</g>
	<g id="圖層_5" transform="translate(84.44 124.943)">
		<path id="路径_19" class="st2" d="M3.9,4v7.6c0,2.4,2,4.4,4.4,4.4h14.9c2.4,0,4.4-2,4.4-4.4l0,0V4c0-0.1-0.1-0.2-0.2-0.2
			c0,0,0,0,0,0H4.1C4,3.8,3.9,3.9,3.9,4C3.9,4,3.9,4,3.9,4z"/>
	</g>
	<g id="圖層_4" transform="translate(84.44 127.32)">
		<rect id="矩形_35" x="3.9" y="3.8" class="st1" width="23.7" height="1.9"/>
	</g>
	<g id="圖層_3" transform="translate(84.44 131.028)">
		<rect id="矩形_36" x="3.9" y="3.8" class="st1" width="23.7" height="1.9"/>
	</g>
</g>
</svg>
