<?xml version="1.0" encoding="utf-8"?>
<!-- Generator: Adobe Illustrator 25.4.1, SVG Export Plug-In . SVG Version: 6.00 Build 0)  -->
<svg version="1.1" id="圖層_1" xmlns="http://www.w3.org/2000/svg" xmlns:xlink="http://www.w3.org/1999/xlink" x="0px" y="0px"
	 viewBox="0 0 71.4 71.5" style="enable-background:new 0 0 71.4 71.5;" xml:space="preserve">
<style type="text/css">
	.st0{fill:#E7E7E7;}
	.st1{fill:#64DCFC;}
	.st2{fill:#80E0DC;}
	.st3{fill:#00A8B0;}
	.st4{fill:#FF5770;}
	.st5{fill:#FFD86E;}
	.st6{fill:#00D3B4;}
	.st7{enable-background:new    ;}
	.st8{fill:#5A5A5A;}
	.st9{fill:#009A8E;}
	.st10{fill:#83E5EB;}
	.st11{fill:#FFFFFF;}
	.st12{fill:#FFAA00;}
	.st13{fill:#FFE1A8;}
	.st14{fill:#E32945;}
	.st15{fill:#FF9AA9;}
</style>
<g>
	<path class="st0" d="M9.8,64.4h51.8c1.5,0,2.7-1.2,2.7-2.7V17H7.1v44.6C7.1,63.2,8.3,64.4,9.8,64.4z"/>
	<path class="st1" d="M9.3,7.1h52.8c1.2,0,2.2,1,2.2,2.2v7.8H7.1V9.3C7.1,8,8,7.1,9.3,7.1z"/>
</g>
<g>
	<path class="st2" d="M15.3,55c0.2,0,0.2,0.1,0.4,0.1h11c0.2,0,0.4-0.1,0.6-0.1l-5.9-5.5L15.3,55z"/>
	<path class="st2" d="M28.5,53.8c0.1-0.2,0.2-0.5,0.2-0.7v-9.6c0-0.2,0-0.4-0.1-0.6l-6,5.5L28.5,53.8z"/>
	<path class="st2" d="M13.9,42.8c-0.1,0.2-0.2,0.5-0.2,0.7V53c0,0.3,0.1,0.6,0.2,1l6.1-5.6L13.9,42.8z"/>
	<path class="st2" d="M27.5,41.7c-0.2-0.1-0.5-0.2-0.8-0.2H15.7c-0.2,0-0.4,0.1-0.6,0.1l6.3,5.7L27.5,41.7z"/>
	<path class="st3" d="M28.5,42.9c-0.1-0.2-0.2-0.5-0.4-0.7c-0.2-0.2-0.4-0.4-0.6-0.5l-6.2,5.6l-6.2-5.7c-0.2,0.1-0.5,0.2-0.7,0.4
		c-0.2,0.2-0.3,0.4-0.5,0.6l6.3,5.6l-6.1,5.6c0.1,0.3,0.2,0.5,0.5,0.6c0.2,0.2,0.5,0.3,0.8,0.4l6-5.5l5.9,5.5
		c0.2-0.1,0.5-0.2,0.7-0.4c0.2-0.2,0.3-0.4,0.5-0.6l-5.9-5.4L28.5,42.9z"/>
</g>
<circle class="st4" cx="12" cy="12.1" r="1.9"/>
<circle class="st5" cx="19.3" cy="12.1" r="1.9"/>
<circle class="st6" cx="26.6" cy="12.1" r="1.9"/>
<g class="st7">
	<path class="st8" d="M48.2,26.7c-2.7,0-5.5,0-8.2,0c-0.2,0-0.4,0-0.6,0c-0.5-0.1-0.7-0.4-0.7-0.9s0.2-0.7,0.7-0.8
		c0.2-0.1,0.5-0.1,0.7-0.1c5.4,0,10.8,0,16.2,0c0.2,0,0.5,0,0.7,0.1c0.5,0.1,0.7,0.4,0.7,0.8c0,0.5-0.2,0.8-0.7,0.9
		c-0.2,0.1-0.4,0-0.6,0C53.8,26.7,50.9,26.7,48.2,26.7z"/>
	<path class="st8" d="M28.6,28.4c-1-0.4-1-1.3-1-2.2c0-1.1-0.2-1.4-1.2-1.8c-0.6-0.2-0.8-0.6-0.7-1.1c0.1-0.5,0.5-0.8,1.1-0.7
		c1.4,0.1,2.6,1.3,2.6,2.8c0,0.9,0.2,1.4,1,1.9s0.8,1.5,0,2.1c-0.8,0.5-1,1.1-1,2c-0.1,1.5-1.3,2.7-2.7,2.7c-0.6,0-1-0.2-1-0.7
		c-0.1-0.6,0.2-0.9,0.7-1.1c1-0.3,1.2-0.6,1.2-1.7c0-0.4-0.1-0.9,0.1-1.3C27.8,29.2,28.2,28.9,28.6,28.4z"/>
	<path class="st8" d="M13.8,28.6c1.2,0.5,1.2,1.4,1.2,2.2c0,1.2,0.2,1.4,1.2,1.7c0.6,0.2,0.8,0.5,0.7,1c-0.1,0.6-0.5,0.8-1,0.8
		c-1.4,0-2.6-1.2-2.8-2.8c0-0.2-0.1-0.5,0-0.7c0.1-0.4-0.1-0.7-0.5-0.9c-0.2-0.1-0.3-0.2-0.5-0.3c-0.8-0.6-0.8-1.6,0.1-2.2
		c0.7-0.4,1-1,0.9-1.8c0-1.5,1-2.6,2.5-3c0.7-0.2,1.2,0.1,1.3,0.6c0.2,0.6-0.2,1-0.8,1.2c-0.8,0.2-1,0.6-1.1,1.4c0,0.1,0,0.1,0,0.2
		C15,27.1,15.1,28,13.8,28.6z"/>
	<path class="st8" d="M51.1,31.7c-1,0-2,0-3,0c-0.7,0-1-0.3-1-0.9s0.3-0.9,1-0.9c2,0,4,0,6.1,0c0.7,0,1,0.3,1,1c0,0.6-0.4,0.8-1,0.9
		C53.1,31.7,52.1,31.7,51.1,31.7z"/>
	<path class="st8" d="M36.5,31.7c-0.9,0-1.8,0-2.7,0c-0.7,0-1.1-0.3-1.1-0.9s0.4-0.9,1-0.9c1.8,0,3.7,0,5.5,0c0.7,0,1,0.3,1,0.9
		s-0.3,0.9-1,0.9C38.4,31.7,37.5,31.7,36.5,31.7z"/>
	<path class="st8" d="M35.3,42.3c-0.6,0-1.4,0-2,0c-0.6,0-1-0.3-1-0.9s0.3-1,1-1c1.4,0,2.7,0,4.1,0c0.6,0,1,0.4,1,0.9
		c0,0.6-0.4,0.9-1,1C36.7,42.3,36,42.3,35.3,42.3z"/>
	<path class="st8" d="M35.3,46.6c-0.6,0-1.4,0-2,0c-0.6,0-1-0.3-1-0.9c0-0.6,0.3-0.9,1-1c1.4,0,2.8,0,4.2,0c0.6,0,1,0.4,1,0.9
		c0,0.6-0.4,0.9-1.1,0.9C36.7,46.6,36,46.6,35.3,46.6z"/>
	<path class="st8" d="M34.8,50.5c-0.6,0-1.1,0-1.7,0s-1-0.3-1-0.9s0.3-0.9,0.9-0.9c1.1,0,2.3,0,3.4,0c0.6,0,0.9,0.4,0.8,0.9
		c0,0.5-0.3,0.8-0.9,0.8C36,50.5,35.4,50.5,34.8,50.5L34.8,50.5z"/>
	<path class="st8" d="M34.8,53.1c0.6,0,1,0,1.6,0s1,0.4,0.9,0.9c0,0.6-0.3,0.8-0.9,0.9c-1,0-2.2,0-3.2,0c-0.6,0-0.9-0.3-0.9-0.9
		c0-0.6,0.3-0.9,0.9-0.9C33.7,53.1,34.3,53.1,34.8,53.1z"/>
	<path class="st8" d="M57.6,42.3c-0.4,0-0.9,0-1.3,0c-0.6,0-1-0.4-1-0.9c0-0.6,0.3-0.9,0.9-0.9c0.9-0.1,1.8-0.1,2.7,0
		c0.6,0,0.9,0.4,0.9,1c0,0.5-0.4,0.8-1,0.9C58.4,42.3,58,42.3,57.6,42.3z"/>
	<path class="st8" d="M35,26.6c-0.5,0-1,0-1.4,0c-0.6,0-0.9-0.4-0.9-0.9s0.3-0.9,0.8-0.9c1,0,2,0,3,0c0.6,0,0.9,0.3,0.8,0.9
		c0,0.6-0.4,0.8-0.9,0.9C35.9,26.7,35.5,26.6,35,26.6L35,26.6z"/>
	<path class="st8" d="M43.6,31.7c-0.3,0-0.7,0-1,0c-0.5-0.1-0.8-0.4-0.8-0.9s0.2-0.8,0.8-0.9c0.7,0,1.4-0.1,2.2,0
		c0.5,0,0.8,0.4,0.8,0.9s-0.3,0.8-0.8,0.8C44.4,31.7,44,31.7,43.6,31.7z"/>
	<path class="st8" d="M23.7,31.2c0-0.5,0.4-0.9,0.9-0.9s0.9,0.4,0.9,0.9s-0.3,0.9-0.8,0.9C24.1,32.1,23.7,31.7,23.7,31.2z"/>
	<path class="st8" d="M18.7,31.2c0,0.6-0.3,0.9-0.9,0.9c-0.5,0-0.9-0.4-0.9-0.9s0.4-0.9,0.9-0.9S18.7,30.7,18.7,31.2z"/>
	<path class="st8" d="M22.1,31.2c0,0.5-0.4,0.9-0.9,0.9s-0.9-0.4-0.9-0.9s0.4-0.9,0.9-0.9S22.1,30.7,22.1,31.2z"/>
</g>
<g>
	<g>
		<path class="st9" d="M36.2,61.8c0,3.4,2.8,6.3,6.3,6.3c3.4,0,6.3-2.8,6.3-6.3v-4.2H36.2V61.8z M44.6,62.8c0,1.1-0.9,2-2,2
			c-1.1,0-2-0.9-2-2c0-1.1,0.9-2,2-2C43.7,60.8,44.6,61.8,44.6,62.8z"/>
		<path class="st10" d="M36.2,37.7V47h12.6v-9.3c0-0.6-0.6-1.2-1.2-1.2H37.4C36.8,36.5,36.2,37,36.2,37.7z"/>
		<rect x="36.2" y="47" class="st2" width="12.6" height="10.7"/>
		<circle class="st11" cx="42.6" cy="62.8" r="2"/>
	</g>
	<g>
		<path class="st12" d="M38.1,57.3c-2.5,2.5-2.5,6.4,0,8.9c2.5,2.5,6.4,2.5,8.9,0l3-3L41,54.3L38.1,57.3z M43.2,64
			c-0.8,0.8-2.1,0.8-2.8,0c-0.8-0.8-0.8-2.1,0-2.8c0.8-0.8,2.1-0.8,2.8,0C44,61.9,44,63.2,43.2,64z"/>
		<path class="st13" d="M55.1,40.3l-6.6,6.6l8.9,8.9l6.6-6.6c0.5-0.5,0.5-1.2,0-1.7l-7.2-7.2C56.3,39.8,55.6,39.8,55.1,40.3z"/>
		
			<rect x="43.9" y="48.7" transform="matrix(0.7071 -0.7071 0.7071 0.7071 -24.4662 50.9478)" class="st5" width="10.7" height="12.6"/>
		<circle class="st11" cx="41.8" cy="62.5" r="2"/>
	</g>
	<g>
		<path class="st14" d="M42.6,55.5c-3.4,0-6.3,2.8-6.3,6.3c0,3.4,2.8,6.3,6.3,6.3h4.2V55.5H42.6z M41.4,63.8c-1.1,0-2-0.9-2-2
			s0.9-2,2-2s2,0.9,2,2C43.4,62.8,42.6,63.8,41.4,63.8z"/>
		<path class="st15" d="M66.6,55.5h-9.2v12.6h9.3c0.6,0,1.2-0.6,1.2-1.2V56.7C67.8,56,67.3,55.5,66.6,55.5z"/>
		<rect x="46.7" y="55.5" class="st4" width="10.7" height="12.6"/>
		<circle class="st11" cx="41.4" cy="61.8" r="2"/>
	</g>
</g>
</svg>
