<?xml version="1.0" encoding="utf-8"?>
<!-- Generator: Adobe Illustrator 25.4.1, SVG Export Plug-In . SVG Version: 6.00 Build 0)  -->
<svg version="1.1" id="圖層_1" xmlns="http://www.w3.org/2000/svg" xmlns:xlink="http://www.w3.org/1999/xlink" x="0px" y="0px"
	 viewBox="0 0 100 100" style="enable-background:new 0 0 100 100;" xml:space="preserve">
<style type="text/css">
	.st0{fill:#0D3A4C;}
	.st1{fill-rule:evenodd;clip-rule:evenodd;fill:#D9F1FD;}
	.st2{fill:#FFFFFF;}
	.st3{fill-rule:evenodd;clip-rule:evenodd;fill:#C3E2F4;}
	.st4{fill:#C3E2F4;}
	.st5{fill:#FC611F;}
	.st6{fill:#2998CD;}
	.st7{fill:#FDC00F;}
	.st8{fill:#14B0BF;}
</style>
<g id="组_383" transform="translate(-401.854 -34.203)">
	<path id="矩形_225" class="st0" d="M411.5,53.7h80.7c1.5,0,2.8,1.2,2.8,2.8v55.5c0,1.5-1.2,2.8-2.8,2.8c0,0,0,0,0,0h-80.7
		c-1.5,0-2.8-1.2-2.8-2.8V56.5C408.7,54.9,410,53.7,411.5,53.7z"/>
	<path id="路径_668" class="st1" d="M451.9,55.2c0.5,0,1,0.4,1,1c0,0.5-0.4,1-1,1c-0.5,0-1-0.4-1-1c0,0,0,0,0,0
		C450.9,55.7,451.3,55.2,451.9,55.2z"/>
	<g id="组_382" transform="translate(407.61 39.323)">
		<path id="矩形_226" class="st2" d="M8.7,19.5h71.1c1,0,1.8,0.8,1.8,1.8v47.1c0,1-0.8,1.8-1.8,1.8H8.7c-1,0-1.8-0.8-1.8-1.8V21.3
			C6.9,20.3,7.7,19.5,8.7,19.5z"/>
		<path id="路径_669" class="st3" d="M8.7,19.5h71c1.1,0.1,1.9,1.1,1.9,2.2v6.4H6.9v-6.4C6.8,20.6,7.6,19.6,8.7,19.5z"/>
		<rect id="矩形_227" x="9.4" y="31.1" class="st4" width="33.8" height="16.4"/>
		<g id="组_380" transform="translate(2.495 30.436)">
			<rect id="矩形_228" x="6.9" y="19.5" class="st4" width="15.3" height="2.1"/>
			<rect id="矩形_229" x="6.9" y="24.6" class="st4" width="15.3" height="2.1"/>
			<rect id="矩形_230" x="6.9" y="29.6" class="st4" width="15.3" height="2.1"/>
			<rect id="矩形_231" x="6.9" y="34.7" class="st4" width="15.3" height="2.1"/>
		</g>
		<g id="组_381" transform="translate(20.845 30.436)">
			<rect id="矩形_232" x="6.9" y="19.5" class="st4" width="15.5" height="2.1"/>
			<rect id="矩形_233" x="6.9" y="24.6" class="st4" width="15.5" height="2.1"/>
			<rect id="矩形_234" x="6.9" y="29.6" class="st4" width="15.5" height="2.1"/>
			<rect id="矩形_235" x="6.9" y="34.7" class="st4" width="15.5" height="2.1"/>
		</g>
		<rect id="矩形_236" x="46.7" y="31.1" class="st5" width="14.7" height="14.7"/>
		<rect id="矩形_237" x="46.7" y="51.1" class="st6" width="14.7" height="15.2"/>
		<rect id="矩形_238" x="63.5" y="51.1" class="st7" width="14.7" height="15.2"/>
		<rect id="矩形_239" x="63.5" y="31.1" class="st8" width="14.7" height="14.7"/>
	</g>
</g>
</svg>
