<svg xmlns="http://www.w3.org/2000/svg" width="120" height="124" viewBox="0 0 120 124">
  <g id="组_400" data-name="组 400" transform="translate(-389 -558)">
    <rect id="矩形_251" data-name="矩形 251" width="76" height="80" transform="translate(433 602)" fill="#d1e3e1"/>
    <g id="组_395" data-name="组 395" transform="translate(-11817 -964)" opacity="0.733">
      <circle id="椭圆_32" data-name="椭圆 32" cx="2" cy="2" r="2" transform="translate(12206 1522)" fill="#dd9e28"/>
      <circle id="椭圆_32-2" data-name="椭圆 32" cx="2" cy="2" r="2" transform="translate(12215 1522)" fill="#dd9e28"/>
      <circle id="椭圆_32-3" data-name="椭圆 32" cx="2" cy="2" r="2" transform="translate(12225 1522)" fill="#dd9e28"/>
      <circle id="椭圆_32-4" data-name="椭圆 32" cx="2" cy="2" r="2" transform="translate(12234 1522)" fill="#dd9e28"/>
      <circle id="椭圆_32-5" data-name="椭圆 32" cx="2" cy="2" r="2" transform="translate(12244 1522)" fill="#dd9e28"/>
      <circle id="椭圆_32-6" data-name="椭圆 32" cx="2" cy="2" r="2" transform="translate(12253 1522)" fill="#dd9e28"/>
      <circle id="椭圆_32-7" data-name="椭圆 32" cx="2" cy="2" r="2" transform="translate(12263 1522)" fill="#dd9e28"/>
      <circle id="椭圆_32-8" data-name="椭圆 32" cx="2" cy="2" r="2" transform="translate(12272 1522)" fill="#dd9e28"/>
      <circle id="椭圆_32-9" data-name="椭圆 32" cx="2" cy="2" r="2" transform="translate(12281 1522)" fill="#dd9e28"/>
      <circle id="椭圆_32-10" data-name="椭圆 32" cx="2" cy="2" r="2" transform="translate(12291 1522)" fill="#dd9e28"/>
      <circle id="椭圆_32-11" data-name="椭圆 32" cx="2" cy="2" r="2" transform="translate(12206 1531)" fill="#dd9e28"/>
      <circle id="椭圆_32-12" data-name="椭圆 32" cx="2" cy="2" r="2" transform="translate(12215 1531)" fill="#dd9e28"/>
      <circle id="椭圆_32-13" data-name="椭圆 32" cx="2" cy="2" r="2" transform="translate(12225 1531)" fill="#dd9e28"/>
      <circle id="椭圆_32-14" data-name="椭圆 32" cx="2" cy="2" r="2" transform="translate(12234 1531)" fill="#dd9e28"/>
      <circle id="椭圆_32-15" data-name="椭圆 32" cx="2" cy="2" r="2" transform="translate(12244 1531)" fill="#dd9e28"/>
      <circle id="椭圆_32-16" data-name="椭圆 32" cx="2" cy="2" r="2" transform="translate(12253 1531)" fill="#dd9e28"/>
      <circle id="椭圆_32-17" data-name="椭圆 32" cx="2" cy="2" r="2" transform="translate(12263 1531)" fill="#dd9e28"/>
      <circle id="椭圆_32-18" data-name="椭圆 32" cx="2" cy="2" r="2" transform="translate(12272 1531)" fill="#dd9e28"/>
      <circle id="椭圆_32-19" data-name="椭圆 32" cx="2" cy="2" r="2" transform="translate(12281 1531)" fill="#dd9e28"/>
      <circle id="椭圆_32-20" data-name="椭圆 32" cx="2" cy="2" r="2" transform="translate(12291 1531)" fill="#dd9e28"/>
      <circle id="椭圆_32-21" data-name="椭圆 32" cx="2" cy="2" r="2" transform="translate(12206 1541)" fill="#dd9e28"/>
      <circle id="椭圆_32-22" data-name="椭圆 32" cx="2" cy="2" r="2" transform="translate(12215 1541)" fill="#dd9e28"/>
      <circle id="椭圆_32-23" data-name="椭圆 32" cx="2" cy="2" r="2" transform="translate(12225 1541)" fill="#dd9e28"/>
      <circle id="椭圆_32-24" data-name="椭圆 32" cx="2" cy="2" r="2" transform="translate(12234 1541)" fill="#dd9e28"/>
      <circle id="椭圆_32-25" data-name="椭圆 32" cx="2" cy="2" r="2" transform="translate(12244 1541)" fill="#dd9e28"/>
      <circle id="椭圆_32-26" data-name="椭圆 32" cx="2" cy="2" r="2" transform="translate(12253 1541)" fill="#dd9e28"/>
      <circle id="椭圆_32-27" data-name="椭圆 32" cx="2" cy="2" r="2" transform="translate(12263 1541)" fill="#dd9e28"/>
      <circle id="椭圆_32-28" data-name="椭圆 32" cx="2" cy="2" r="2" transform="translate(12272 1541)" fill="#dd9e28"/>
      <circle id="椭圆_32-29" data-name="椭圆 32" cx="2" cy="2" r="2" transform="translate(12281 1541)" fill="#dd9e28"/>
      <circle id="椭圆_32-30" data-name="椭圆 32" cx="2" cy="2" r="2" transform="translate(12291 1541)" fill="#dd9e28"/>
      <circle id="椭圆_32-31" data-name="椭圆 32" cx="2" cy="2" r="2" transform="translate(12206 1550)" fill="#dd9e28"/>
      <circle id="椭圆_32-32" data-name="椭圆 32" cx="2" cy="2" r="2" transform="translate(12215 1550)" fill="#dd9e28"/>
      <circle id="椭圆_32-33" data-name="椭圆 32" cx="2" cy="2" r="2" transform="translate(12225 1550)" fill="#dd9e28"/>
      <circle id="椭圆_32-34" data-name="椭圆 32" cx="2" cy="2" r="2" transform="translate(12234 1550)" fill="#dd9e28"/>
      <circle id="椭圆_32-35" data-name="椭圆 32" cx="2" cy="2" r="2" transform="translate(12244 1550)" fill="#dd9e28"/>
      <circle id="椭圆_32-36" data-name="椭圆 32" cx="2" cy="2" r="2" transform="translate(12253 1550)" fill="#dd9e28"/>
      <circle id="椭圆_32-37" data-name="椭圆 32" cx="2" cy="2" r="2" transform="translate(12263 1550)" fill="#dd9e28"/>
      <circle id="椭圆_32-38" data-name="椭圆 32" cx="2" cy="2" r="2" transform="translate(12272 1550)" fill="#dd9e28"/>
      <circle id="椭圆_32-39" data-name="椭圆 32" cx="2" cy="2" r="2" transform="translate(12281 1550)" fill="#dd9e28"/>
      <circle id="椭圆_32-40" data-name="椭圆 32" cx="2" cy="2" r="2" transform="translate(12291 1550)" fill="#dd9e28"/>
      <circle id="椭圆_32-41" data-name="椭圆 32" cx="2" cy="2" r="2" transform="translate(12206 1560)" fill="#dd9e28"/>
      <circle id="椭圆_32-42" data-name="椭圆 32" cx="2" cy="2" r="2" transform="translate(12215 1560)" fill="#dd9e28"/>
      <circle id="椭圆_32-43" data-name="椭圆 32" cx="2" cy="2" r="2" transform="translate(12225 1560)" fill="#dd9e28"/>
      <circle id="椭圆_32-44" data-name="椭圆 32" cx="2" cy="2" r="2" transform="translate(12234 1560)" fill="#dd9e28"/>
      <circle id="椭圆_32-45" data-name="椭圆 32" cx="2" cy="2" r="2" transform="translate(12244 1560)" fill="#dd9e28"/>
      <circle id="椭圆_32-46" data-name="椭圆 32" cx="2" cy="2" r="2" transform="translate(12253 1560)" fill="#dd9e28"/>
      <circle id="椭圆_32-47" data-name="椭圆 32" cx="2" cy="2" r="2" transform="translate(12263 1560)" fill="#dd9e28"/>
      <circle id="椭圆_32-48" data-name="椭圆 32" cx="2" cy="2" r="2" transform="translate(12272 1560)" fill="#dd9e28"/>
      <circle id="椭圆_32-49" data-name="椭圆 32" cx="2" cy="2" r="2" transform="translate(12281 1560)" fill="#dd9e28"/>
      <circle id="椭圆_32-50" data-name="椭圆 32" cx="2" cy="2" r="2" transform="translate(12291 1560)" fill="#dd9e28"/>
      <circle id="椭圆_32-51" data-name="椭圆 32" cx="2" cy="2" r="2" transform="translate(12206 1569)" fill="#dd9e28"/>
      <circle id="椭圆_32-52" data-name="椭圆 32" cx="2" cy="2" r="2" transform="translate(12215 1569)" fill="#dd9e28"/>
      <circle id="椭圆_32-53" data-name="椭圆 32" cx="2" cy="2" r="2" transform="translate(12225 1569)" fill="#dd9e28"/>
      <circle id="椭圆_32-54" data-name="椭圆 32" cx="2" cy="2" r="2" transform="translate(12234 1569)" fill="#dd9e28"/>
      <circle id="椭圆_32-55" data-name="椭圆 32" cx="2" cy="2" r="2" transform="translate(12244 1569)" fill="#dd9e28"/>
      <circle id="椭圆_32-56" data-name="椭圆 32" cx="2" cy="2" r="2" transform="translate(12253 1569)" fill="#dd9e28"/>
      <circle id="椭圆_32-57" data-name="椭圆 32" cx="2" cy="2" r="2" transform="translate(12263 1569)" fill="#dd9e28"/>
      <circle id="椭圆_32-58" data-name="椭圆 32" cx="2" cy="2" r="2" transform="translate(12272 1569)" fill="#dd9e28"/>
      <circle id="椭圆_32-59" data-name="椭圆 32" cx="2" cy="2" r="2" transform="translate(12281 1569)" fill="#dd9e28"/>
      <circle id="椭圆_32-60" data-name="椭圆 32" cx="2" cy="2" r="2" transform="translate(12291 1569)" fill="#dd9e28"/>
      <circle id="椭圆_32-61" data-name="椭圆 32" cx="2" cy="2" r="2" transform="translate(12206 1579)" fill="#dd9e28"/>
      <circle id="椭圆_32-62" data-name="椭圆 32" cx="2" cy="2" r="2" transform="translate(12215 1579)" fill="#dd9e28"/>
      <circle id="椭圆_32-63" data-name="椭圆 32" cx="2" cy="2" r="2" transform="translate(12225 1579)" fill="#dd9e28"/>
      <circle id="椭圆_32-64" data-name="椭圆 32" cx="2" cy="2" r="2" transform="translate(12234 1579)" fill="#dd9e28"/>
      <circle id="椭圆_32-65" data-name="椭圆 32" cx="2" cy="2" r="2" transform="translate(12244 1579)" fill="#dd9e28"/>
      <circle id="椭圆_32-66" data-name="椭圆 32" cx="2" cy="2" r="2" transform="translate(12253 1579)" fill="#dd9e28"/>
      <circle id="椭圆_32-67" data-name="椭圆 32" cx="2" cy="2" r="2" transform="translate(12263 1579)" fill="#dd9e28"/>
      <circle id="椭圆_32-68" data-name="椭圆 32" cx="2" cy="2" r="2" transform="translate(12272 1579)" fill="#dd9e28"/>
      <circle id="椭圆_32-69" data-name="椭圆 32" cx="2" cy="2" r="2" transform="translate(12281 1579)" fill="#dd9e28"/>
      <circle id="椭圆_32-70" data-name="椭圆 32" cx="2" cy="2" r="2" transform="translate(12291 1579)" fill="#dd9e28"/>
      <circle id="椭圆_32-71" data-name="椭圆 32" cx="2" cy="2" r="2" transform="translate(12206 1588)" fill="#dd9e28"/>
      <circle id="椭圆_32-72" data-name="椭圆 32" cx="2" cy="2" r="2" transform="translate(12215 1588)" fill="#dd9e28"/>
      <circle id="椭圆_32-73" data-name="椭圆 32" cx="2" cy="2" r="2" transform="translate(12225 1588)" fill="#dd9e28"/>
      <circle id="椭圆_32-74" data-name="椭圆 32" cx="2" cy="2" r="2" transform="translate(12234 1588)" fill="#dd9e28"/>
      <circle id="椭圆_32-75" data-name="椭圆 32" cx="2" cy="2" r="2" transform="translate(12244 1588)" fill="#dd9e28"/>
      <circle id="椭圆_32-76" data-name="椭圆 32" cx="2" cy="2" r="2" transform="translate(12253 1588)" fill="#dd9e28"/>
      <circle id="椭圆_32-77" data-name="椭圆 32" cx="2" cy="2" r="2" transform="translate(12263 1588)" fill="#dd9e28"/>
      <circle id="椭圆_32-78" data-name="椭圆 32" cx="2" cy="2" r="2" transform="translate(12272 1588)" fill="#dd9e28"/>
      <circle id="椭圆_32-79" data-name="椭圆 32" cx="2" cy="2" r="2" transform="translate(12281 1588)" fill="#dd9e28"/>
      <circle id="椭圆_32-80" data-name="椭圆 32" cx="2" cy="2" r="2" transform="translate(12291 1588)" fill="#dd9e28"/>
      <circle id="椭圆_32-81" data-name="椭圆 32" cx="2" cy="2" r="2" transform="translate(12206 1597)" fill="#dd9e28"/>
      <circle id="椭圆_32-82" data-name="椭圆 32" cx="2" cy="2" r="2" transform="translate(12215 1597)" fill="#dd9e28"/>
      <circle id="椭圆_32-83" data-name="椭圆 32" cx="2" cy="2" r="2" transform="translate(12225 1597)" fill="#dd9e28"/>
      <circle id="椭圆_32-84" data-name="椭圆 32" cx="2" cy="2" r="2" transform="translate(12234 1597)" fill="#dd9e28"/>
      <circle id="椭圆_32-85" data-name="椭圆 32" cx="2" cy="2" r="2" transform="translate(12244 1597)" fill="#dd9e28"/>
      <circle id="椭圆_32-86" data-name="椭圆 32" cx="2" cy="2" r="2" transform="translate(12253 1597)" fill="#dd9e28"/>
      <circle id="椭圆_32-87" data-name="椭圆 32" cx="2" cy="2" r="2" transform="translate(12263 1597)" fill="#dd9e28"/>
      <circle id="椭圆_32-88" data-name="椭圆 32" cx="2" cy="2" r="2" transform="translate(12272 1597)" fill="#dd9e28"/>
      <circle id="椭圆_32-89" data-name="椭圆 32" cx="2" cy="2" r="2" transform="translate(12281 1597)" fill="#dd9e28"/>
      <circle id="椭圆_32-90" data-name="椭圆 32" cx="2" cy="2" r="2" transform="translate(12291 1597)" fill="#dd9e28"/>
      <circle id="椭圆_32-91" data-name="椭圆 32" cx="2" cy="2" r="2" transform="translate(12206 1607)" fill="#dd9e28"/>
      <circle id="椭圆_32-92" data-name="椭圆 32" cx="2" cy="2" r="2" transform="translate(12215 1607)" fill="#dd9e28"/>
      <circle id="椭圆_32-93" data-name="椭圆 32" cx="2" cy="2" r="2" transform="translate(12225 1607)" fill="#dd9e28"/>
      <circle id="椭圆_32-94" data-name="椭圆 32" cx="2" cy="2" r="2" transform="translate(12234 1607)" fill="#dd9e28"/>
      <circle id="椭圆_32-95" data-name="椭圆 32" cx="2" cy="2" r="2" transform="translate(12244 1607)" fill="#dd9e28"/>
      <circle id="椭圆_32-96" data-name="椭圆 32" cx="2" cy="2" r="2" transform="translate(12253 1607)" fill="#dd9e28"/>
      <circle id="椭圆_32-97" data-name="椭圆 32" cx="2" cy="2" r="2" transform="translate(12263 1607)" fill="#dd9e28"/>
      <circle id="椭圆_32-98" data-name="椭圆 32" cx="2" cy="2" r="2" transform="translate(12272 1607)" fill="#dd9e28"/>
      <circle id="椭圆_32-99" data-name="椭圆 32" cx="2" cy="2" r="2" transform="translate(12281 1607)" fill="#dd9e28"/>
      <circle id="椭圆_32-100" data-name="椭圆 32" cx="2" cy="2" r="2" transform="translate(12291 1607)" fill="#dd9e28"/>
    </g>
  </g>
</svg>
