<svg xmlns="http://www.w3.org/2000/svg" viewBox="0 0 300 300"><defs><style>.a{fill:#fff;}.b{fill:#086360;}</style></defs><circle class="a" cx="150" cy="150" r="150"/><path class="b" d="M149.95666,229.64244q-38.02368,0-76.04788.0166c-3.421.00375-6.42859-.86329-8.79513-3.42851a10.60853,10.60853,0,0,1-2.81693-7.49591q.0241-18.4929.00643-36.98527,0-49.82745.00054-99.65436c.00053-7.5243,4.23556-11.75236,11.78235-11.75236q75.87624-.00321,151.75248-.00054c7.66033.00054,11.86376,4.19915,11.86376,11.84448q.00161,68.06248-.00161,136.12551c-.00053,5.5171-2.90315,9.63967-7.8001,10.91264a16.389,16.389,0,0,1-4.06794.40165Q187.89492,229.65931,149.95666,229.64244ZM71.968,219.61825H228.02673V106.41855H71.968ZM203.23939,94.08513v.02142c.53447,0,1.06893.00911,1.60286-.0016,2.98455-.05891,4.45674-1.48933,4.54082-4.4953a37.06719,37.06719,0,0,0-.07283-4.4455,3.80438,3.80438,0,0,0-3.87193-3.647c-1.42185-.06266-2.85067-.06266-4.272.0016a3.73345,3.73345,0,0,0-3.81624,3.496,33.749,33.749,0,0,0-.00964,5.50586,3.7557,3.7557,0,0,0,3.76322,3.557C201.81272,94.12476,202.52713,94.08513,203.23939,94.08513Zm-18.611-12.5894v-.007c-.53446,0-1.06893-.00749-1.60339.00107-3.12754.04981-4.53868,1.45988-4.58742,4.603-.01927,1.24619-.03052,2.49346.00643,3.73912.08194,2.71517,1.52253,4.1804,4.19647,4.26341,1.24566.03909,2.49453.04123,3.74019-.00107a3.91442,3.91442,0,0,0,4.13542-3.79161,31.93467,31.93467,0,0,0,.00375-4.97942,3.93662,3.93662,0,0,0-4.11078-3.82374C185.81623,81.47484,185.22178,81.49573,184.6284,81.49573ZM228.15312,87.784h.04284c0-.53446.007-1.06893-.00161-1.60286-.05141-3.26249-1.43631-4.65382-4.68166-4.69023-1.12785-.01286-2.25729-.03053-3.38353.0166a3.89344,3.89344,0,0,0-4.01064,3.72787,31.27593,31.27593,0,0,0,.00482,5.15615,3.87483,3.87483,0,0,0,4.03688,3.69574c1.42239.05088,2.85227.06052,4.27252-.022a3.78278,3.78278,0,0,0,3.70806-3.61274C228.21631,89.569,228.15312,88.67353,228.15312,87.784Z"/><path class="b" d="M140.32074,196.10014a4.26025,4.26025,0,0,1-3.55383-1.6939,4.85846,4.85846,0,0,1-.53714-4.3898q3.84944-12.09376,7.76315-24.165s8.14284-25.24362,11.21629-34.71406c.75885-2.33762,2.40456-3.7343,4.40372-3.7343a4.71709,4.71709,0,0,1,1.72818.34274c2.31941.9072,3.26784,3.21537,2.41313,5.87806-2.78105,8.67035-18.98426,58.8791-18.98426,58.8791-.784,2.411-2.23051,3.58542-4.42407,3.59452Z"/><path class="b" d="M170.28779,180.146a4.3058,4.3058,0,0,1-3.9603-2.57754,4.44055,4.44055,0,0,1,2.21927-5.92357c3.69735-1.76674,7.41772-3.48314,11.14078-5.19953l5.29753-2.45169c.36792-.17138,1.80744-.926,1.80744-.926l2.39706-1.24084-18.3325-8.53807c-.82955-.37219-1.6591-.74493-2.45919-1.16961a4.43249,4.43249,0,0,1-2.04736-5.8802,4.30559,4.30559,0,0,1,5.76131-2.13947q14.71254,6.7293,29.35493,13.623a4.70918,4.70918,0,0,1-.046,8.42132q-14.576,6.83211-29.18785,13.56569A4.62458,4.62458,0,0,1,170.28779,180.146Z"/><path class="b" d="M129.77173,180.11382a5.33934,5.33934,0,0,1-2.22623-.51144q-8.18247-3.76107-16.33977-7.58053l-12.37306-5.7613a4.40124,4.40124,0,0,1-2.86994-4.38338,4.34972,4.34972,0,0,1,2.80622-4.26448s21.74709-10.11951,28.55055-13.26847a5.92283,5.92283,0,0,1,2.49079-.58962,4.10107,4.10107,0,0,1,3.805,2.427A4.29085,4.29085,0,0,1,133.86,149.532a5.13891,5.13891,0,0,1-2.75159,2.83835c-4.182,1.98363-8.38277,3.93084-12.72222,5.93964l-7.79528,3.61755,18.67793,8.65428c.69459.31811,1.38918.633,2.06824.98057a4.50793,4.50793,0,0,1,2.30549,6.05639A4.18873,4.18873,0,0,1,129.77173,180.11382Z"/></svg>