<svg xmlns="http://www.w3.org/2000/svg" viewBox="0 0 300 300"><defs><style>.a{fill:#fff;}.b{fill:#086360;}</style></defs><circle class="a" cx="150" cy="150" r="150"/><path class="b" d="M124.14788,142.18442v41.66043a4.57656,4.57656,0,0,0,6.62592,4.09207l42.55112-21.31018a4.57655,4.57655,0,0,0-.07481-8.22074L130.699,138.05574A4.57656,4.57656,0,0,0,124.14788,142.18442Z"/><path class="b" d="M149.95667,229.62029q-38.01311,0-76.02674.0166c-3.42006.00375-6.4268-.863-8.79268-3.42756a10.60553,10.60553,0,0,1-2.81614-7.49382q.02409-18.48777.00643-36.975,0-49.81359.00053-99.62665c.00054-7.5222,4.23439-11.74909,11.77908-11.74909q75.85514-.00321,151.71029-.00054c7.65819.00054,11.86045,4.198,11.86045,11.84118q.0016,68.04357-.0016,136.08766c-.00054,5.51557-2.90234,9.637-7.79793,10.90961a16.3843,16.3843,0,0,1-4.06681.40154Q187.88438,229.63716,149.95667,229.62029Zm-77.967-10.02139H228.005V106.43067H71.98969ZM203.22459,94.10068v.02142c.53432,0,1.06863.0091,1.60241-.00161,2.98372-.05889,4.45551-1.48892,4.53956-4.49405a37.05692,37.05692,0,0,0-.07281-4.44426,3.80333,3.80333,0,0,0-3.87086-3.646c-1.42145-.06264-2.84987-.06264-4.27079.0016a3.73242,3.73242,0,0,0-3.81518,3.495,33.74032,33.74032,0,0,0-.00963,5.50433,3.75466,3.75466,0,0,0,3.76217,3.556C201.79831,94.1403,202.51252,94.10068,203.22459,94.10068ZM184.61878,81.51477v-.007c-.53432,0-1.06864-.00749-1.603.00107-3.12666.0498-4.53741,1.45947-4.58613,4.60167-.01928,1.24584-.03052,2.49276.00642,3.73808.08192,2.71442,1.52211,4.17924,4.1953,4.26222,1.24532.03909,2.49384.04123,3.73916-.00107a3.91332,3.91332,0,0,0,4.13426-3.79055,31.92559,31.92559,0,0,0,.00375-4.978,3.93552,3.93552,0,0,0-4.10964-3.82267C185.80627,81.49389,185.212,81.51477,184.61878,81.51477Zm43.5126,6.28653h.04284c0-.53432.007-1.06863-.00161-1.60242-.0514-3.26158-1.43591-4.65252-4.68036-4.68893-1.12753-.01284-2.25667-.03051-3.38259.0166a3.89235,3.89235,0,0,0-4.00952,3.72684,31.2663,31.2663,0,0,0,.00482,5.15472,3.87375,3.87375,0,0,0,4.03575,3.69471c1.422.05086,2.85148.0605,4.27133-.02195a3.78173,3.78173,0,0,0,3.707-3.61173C228.19456,89.58575,228.13138,88.69058,228.13138,87.8013Z"/></svg>