<svg xmlns="http://www.w3.org/2000/svg" viewBox="0 0 300 300"><defs><style>.a{fill:#fff;}.b{fill:#086360;}</style></defs><circle class="a" cx="150" cy="150" r="150"/><path class="b" d="M149.56888,233.06436a5.52709,5.52709,0,0,1-2.62187-.66131l-73.20267-39.4369a5.5289,5.5289,0,0,1-2.90619-4.86674V106.69822a5.52837,5.52837,0,0,1,2.8774-4.85144l73.0947-39.94166a5.5274,5.5274,0,0,1,5.29322-.0036L225.487,101.84318a5.52631,5.52631,0,0,1,2.88549,4.855v81.40119a5.52636,5.52636,0,0,1-2.908,4.86764L152.189,232.404A5.52958,5.52958,0,0,1,149.56888,233.06436ZM81.89426,184.79823l67.67552,36.45963,67.7466-36.46143V109.98321L149.46631,73.053l-67.572,36.9239Z"/><path class="b" d="M149.45551,152.67539a5.49987,5.49987,0,0,1-2.67135-.6919L73.68945,111.53527a5.5283,5.5283,0,0,1,5.35351-9.6741l73.0947,40.44822a5.52877,5.52877,0,0,1-2.68215,10.366Z"/><path class="b" d="M149.46631,152.67539a5.52878,5.52878,0,0,1-2.67406-10.3705l73.38353-40.44822a5.52832,5.52832,0,0,1,5.33731,9.6831L152.12957,151.988A5.50641,5.50641,0,0,1,149.46631,152.67539Z"/><path class="b" d="M149.56888,233.06436a5.528,5.528,0,0,1-5.52806-5.52086l-.108-80.38987a5.52833,5.52833,0,0,1,5.52086-5.53525h.0072a5.528,5.528,0,0,1,5.52806,5.52086l.108,80.38987a5.52833,5.52833,0,0,1-5.52086,5.53525Z"/><path class="b" d="M149.46091,54.00083a4.146,4.146,0,0,1-4.146-4.14605V32.73706a4.146,4.146,0,1,1,8.29208,0V49.85478A4.146,4.146,0,0,1,149.46091,54.00083Z"/><path class="b" d="M158.22,45.44152a4.13006,4.13006,0,0,1-2.8972-1.18047l-8.75905-8.55842a4.14588,4.14588,0,0,1,5.79438-5.93114l8.75906,8.55841A4.146,4.146,0,0,1,158.22,45.44152Z"/><path class="b" d="M140.70185,45.44152a4.146,4.146,0,0,1-2.89719-7.11162l8.75906-8.55841a4.14588,4.14588,0,1,1,5.79438,5.93114l-8.75905,8.55842A4.13006,4.13006,0,0,1,140.70185,45.44152Z"/><path class="b" d="M251.981,208.82782a4.12468,4.12468,0,0,1-2.29436-.6955l-14.24752-9.48965a4.1457,4.1457,0,1,1,4.59592-6.90108l14.24752,9.48965a4.146,4.146,0,0,1-2.30156,7.59658Z"/><path class="b" d="M240.00085,211.37411a4.14643,4.14643,0,0,1-.85747-8.20211l11.97926-2.54539a4.14577,4.14577,0,1,1,1.72392,8.11034l-11.97926,2.54539A4.14186,4.14186,0,0,1,240.00085,211.37411Z"/><path class="b" d="M251.9801,208.82872a4.14745,4.14745,0,0,1-4.06956-3.37945l-2.26827-12.035a4.14573,4.14573,0,0,1,8.14813-1.535l2.26826,12.035a4.15173,4.15173,0,0,1-4.07856,4.91442Z"/><path class="b" d="M47.15586,208.82782a4.146,4.146,0,0,1-2.30156-7.59658l14.24752-9.48965a4.1457,4.1457,0,0,1,4.59592,6.90108l-14.24752,9.48965A4.12468,4.12468,0,0,1,47.15586,208.82782Z"/><path class="b" d="M59.136,211.37411a4.14186,4.14186,0,0,1-.86645-.09177L46.2903,208.737a4.14577,4.14577,0,1,1,1.72392-8.11034L59.99348,203.172a4.14643,4.14643,0,0,1-.85747,8.20211Z"/><path class="b" d="M47.15676,208.82872a4.15173,4.15173,0,0,1-4.07856-4.91442l2.26826-12.035a4.14573,4.14573,0,0,1,8.14813,1.535l-2.26827,12.035A4.14745,4.14745,0,0,1,47.15676,208.82872Z"/></svg>