<svg xmlns="http://www.w3.org/2000/svg" viewBox="0 0 300 300"><defs><style>.a{fill:#fff;}.b{fill:#086360;}</style></defs><circle class="a" cx="150" cy="150" r="150"/><path class="b" d="M211.6689,50.79838a28.233,28.233,0,0,1,2.83814,2.19816q10.66964,10.59194,21.276,21.24758c2.441,2.44225,2.44807,4.52714.0173,6.964q-6.38,6.3961-12.77259,12.77973c-.28238.2823-.5835.54584-.75984.71L193.66028,66.087c.16588-.175.4866-.52943.82411-.86707,4.00374-4.00522,7.99223-8.026,12.02907-11.99755a37.94582,37.94582,0,0,1,2.99773-2.42395Z"/><path class="b" d="M99.468,183.76721q3.78351-8.735,7.56478-17.471,4.0431-9.38049,8.05985-18.77237c.17242-.40148.36171-.79574.49518-1.08821,8.79535,8.79529,17.54613,17.546,26.3553,26.35512-2.34453,1.0126-4.75837,2.06223-7.17781,3.09881q-14.26922,6.11347-28.54139,12.22c-3.36861,1.44192-4.97165.92254-6.75591-2.18468Z"/><path class="b" d="M216.04353,100.731l-66.96405,66.964-28.384-28.38331,66.95278-66.97593Z"/><path class="b" d="M194.47158,239.27179h-120.19a15.89562,15.89562,0,0,1-15.878-15.87708v-.88919a15.89638,15.89638,0,0,1,15.878-15.878h9.72522a4.763,4.763,0,0,1,0,9.52608H74.28154a6.35922,6.35922,0,0,0-6.35232,6.35188v.88919a6.359,6.359,0,0,0,6.35232,6.351h120.19a4.763,4.763,0,0,1,0,9.52607Z"/><path class="b" d="M102.50993,216.15539a4.81446,4.81446,0,0,1-.93024-.09783,4.43385,4.43385,0,0,1-.88527-.269,4.54592,4.54592,0,0,1-.82281-.43761,4.29078,4.29078,0,0,1-.72454-.59047,4.76154,4.76154,0,0,1,0-6.73533,4.29283,4.29283,0,0,1,.72454-.5992,5.17045,5.17045,0,0,1,.82281-.43849,5.087,5.087,0,0,1,.88527-.26815,4.76427,4.76427,0,1,1,.93024,9.43611Z"/><path class="b" d="M216.07775,216.15364H121.35158a4.763,4.763,0,1,1,0-9.52608h94.72617a6.35144,6.35144,0,1,0,0-12.70288H102.51255a4.763,4.763,0,0,1,0-9.52608h113.5652a15.87752,15.87752,0,1,1,0,31.755Z"/></svg>