<?xml version="1.0" encoding="utf-8"?>
<!-- Generator: Adobe Illustrator 25.3.1, SVG Export Plug-In . SVG Version: 6.00 Build 0)  -->
<svg version="1.1" id="圖層_1" xmlns="http://www.w3.org/2000/svg" xmlns:xlink="http://www.w3.org/1999/xlink" x="0px" y="0px"
	 viewBox="0 0 16 16" style="enable-background:new 0 0 16 16;" xml:space="preserve">
<path d="M0,2c0-0.8,0.7-1.5,1.5-1.5h2C4.3,0.5,5,1.2,5,2v2c0,0.8-0.7,1.5-1.5,1.5h-2C0.7,5.5,0,4.8,0,4V2z M1.5,1.5
	C1.2,1.5,1,1.7,1,2v2c0,0.3,0.2,0.5,0.5,0.5h2C3.8,4.5,4,4.3,4,4V2c0-0.3-0.2-0.5-0.5-0.5H1.5z M0,8.5c0-1.1,0.9-2,2-2h12
	c1.1,0,2,0.9,2,2v5c0,1.1-0.9,2-2,2H2c-1.1,0-2-0.9-2-2V8.5z M1,11.5v2c0,0.6,0.4,1,1,1h12c0.6,0,1-0.4,1-1v-2H1z M15,10.5v-2
	c0-0.6-0.4-1-1-1H2c-0.6,0-1,0.4-1,1v2H15z M2,9c0-0.3,0.2-0.5,0.5-0.5h9C11.8,8.5,12,8.7,12,9s-0.2,0.5-0.5,0.5h-9
	C2.2,9.5,2,9.3,2,9z M2,13c0-0.3,0.2-0.5,0.5-0.5h6C8.8,12.5,9,12.7,9,13s-0.2,0.5-0.5,0.5h-6C2.2,13.5,2,13.3,2,13z"/>
</svg>
