<?xml version="1.0" encoding="utf-8"?>
<!-- Generator: Adobe Illustrator 25.3.1, SVG Export Plug-In . SVG Version: 6.00 Build 0)  -->
<svg version="1.1" id="圖層_1" xmlns="http://www.w3.org/2000/svg" xmlns:xlink="http://www.w3.org/1999/xlink" x="0px" y="0px"
	 viewBox="0 0 16 16" style="enable-background:new 0 0 16 16;" xml:space="preserve">
<path d="M5,14.5c6,0,9.3-5,9.3-9.3c0-0.1,0-0.3,0-0.4C15,4.3,15.6,3.7,16,3c-0.6,0.3-1.2,0.4-1.9,0.5c0.7-0.4,1.2-1.1,1.4-1.8
	c-0.6,0.4-1.4,0.7-2.1,0.8c-1.2-1.3-3.3-1.4-4.6-0.1c-0.9,0.8-1.2,2-1,3.1C5.2,5.4,2.8,4.2,1.1,2.1c-0.9,1.5-0.4,3.4,1,4.4
	c-0.5,0-1-0.2-1.5-0.4v0c0,1.6,1.1,2.9,2.6,3.2C3,9.4,2.7,9.5,2.4,9.5c-0.2,0-0.4,0-0.6-0.1c0.4,1.3,1.7,2.3,3.1,2.3
	c-1.2,0.9-2.6,1.4-4.1,1.4c-0.3,0-0.5,0-0.8,0C1.5,14,3.2,14.5,5,14.5z"/>
</svg>
