<?xml version="1.0" encoding="utf-8"?>
<!-- Generator: Adobe Illustrator 25.3.1, SVG Export Plug-In . SVG Version: 6.00 Build 0)  -->
<svg version="1.1" id="圖層_1" xmlns="http://www.w3.org/2000/svg" xmlns:xlink="http://www.w3.org/1999/xlink" x="0px" y="0px"
	 viewBox="0 0 16 16" style="enable-background:new 0 0 16 16;" xml:space="preserve">
<path d="M8.1,2.4L8.1,2.4c0.9,0,5.1,0,6.2,0.3c0.7,0.2,1.2,0.7,1.4,1.4c0.1,0.4,0.2,0.9,0.2,1.4l0,0.1l0,0.3l0,0.1
	C16,6.9,16,7.8,16,8V8c0,0.2,0,1.1-0.1,2.1l0,0.1l0,0.1c-0.1,0.6-0.1,1.1-0.2,1.6c-0.2,0.7-0.7,1.2-1.4,1.4
	c-1.2,0.3-5.6,0.3-6.2,0.3H7.9c-0.3,0-1.6,0-2.9-0.1l-0.2,0l-0.1,0l-0.2,0l-0.2,0c-1.1,0-2.2-0.1-2.7-0.3c-0.7-0.2-1.2-0.7-1.4-1.4
	c-0.1-0.4-0.2-1-0.2-1.6l0-0.1l0-0.1C0,9.4,0,8.7,0,8.1V7.9c0-0.2,0-1,0.1-1.8l0-0.1l0-0.1l0-0.1l0-0.3l0-0.1c0-0.5,0.1-1,0.2-1.4
	c0.2-0.7,0.7-1.2,1.4-1.4c0.5-0.1,1.5-0.2,2.7-0.3l0.2,0l0.2,0l0.1,0l0.2,0c1,0,1.9,0,2.9-0.1L8.1,2.4L8.1,2.4z M6.4,5.6v4.8L10.6,8
	L6.4,5.6z"/>
</svg>
